<svg width="234" height="68" viewBox="0 0 234 68" fill="none" xmlns="http://www.w3.org/2000/svg">
<path d="M232.785 33.743C232.785 37.8708 229.863 42.0231 224.037 45.9771C218.245 49.908 209.799 53.4875 199.272 56.5095C178.231 62.5496 149.105 66.299 116.892 66.299C84.6795 66.299 55.5537 62.5496 34.5129 56.5095C23.9857 53.4875 15.5393 49.908 9.74755 45.9771C3.92183 42.0231 1 37.8708 1 33.743C1 29.6152 3.92183 25.4629 9.74755 21.5089C15.5393 17.578 23.9857 13.9985 34.5129 10.9765C55.5537 4.93639 84.6795 1.18701 116.892 1.18701C149.105 1.18701 178.231 4.93639 199.272 10.9765C209.799 13.9985 218.245 17.578 224.037 21.5089C229.863 25.4629 232.785 29.6152 232.785 33.743Z" stroke="#0CA941" stroke-width="2"/>
</svg>
