<svg width="23" height="9" viewBox="0 0 23 9" fill="none" xmlns="http://www.w3.org/2000/svg">
<path d="M16.6768 8.20877C16.8178 8.20906 16.9572 8.18973 17.0846 8.15219C17.212 8.11465 17.3243 8.05986 17.4131 7.99184L21.9727 4.47411C22.1116 4.36921 22.1875 4.23762 22.1875 4.10182C22.1875 3.96602 22.1116 3.83443 21.9727 3.72953L17.2526 0.211798C17.0924 0.0920681 16.8621 0.0167744 16.6125 0.00248088C16.3629 -0.0118127 16.1143 0.0360647 15.9216 0.13558C15.7288 0.235096 15.6075 0.378098 15.5845 0.533128C15.5615 0.688158 15.6386 0.842517 15.7988 0.962246L20.0186 4.10475L15.9404 7.24725C15.825 7.33331 15.7517 7.43811 15.7291 7.54924C15.7066 7.66037 15.7358 7.77318 15.8132 7.87433C15.8907 7.97548 16.0132 8.06074 16.1662 8.12C16.3193 8.17927 16.4964 8.21008 16.6768 8.20877Z" fill="#10AA42"/>
<path d="M8.53492 7.37798C8.64739 7.37822 8.75852 7.3628 8.86014 7.33287C8.96176 7.30293 9.05128 7.25923 9.12214 7.20499L12.7584 4.39962C12.8692 4.31596 12.9297 4.21102 12.9297 4.10272C12.9297 3.99442 12.8692 3.88948 12.7584 3.80582L8.99416 1.00045C8.86637 0.904967 8.68274 0.84492 8.48366 0.833521C8.28459 0.822122 8.08638 0.860304 7.93263 0.939668C7.77889 1.01903 7.6822 1.13307 7.66385 1.25671C7.6455 1.38034 7.70697 1.50344 7.83476 1.59893L11.2 4.10506L7.94769 6.61118C7.85563 6.67981 7.79715 6.76339 7.77917 6.85201C7.7612 6.94064 7.78447 7.03061 7.84625 7.11127C7.90802 7.19194 8.00571 7.25993 8.12776 7.3072C8.2498 7.35446 8.3911 7.37903 8.53492 7.37798Z" fill="#10AA42"/>
<path d="M0.649678 6.53765C0.733271 6.53782 0.815866 6.52637 0.891392 6.50412C0.966919 6.48186 1.03346 6.44939 1.08612 6.40907L3.78873 4.32403C3.87102 4.26185 3.91602 4.18385 3.91602 4.10336C3.91602 4.02287 3.87102 3.94488 3.78873 3.8827L0.991 1.79766C0.896024 1.72669 0.759545 1.68206 0.611586 1.67359C0.463628 1.66512 0.31631 1.6935 0.202042 1.75248C0.0877733 1.81147 0.0159144 1.89623 0.00227284 1.98812C-0.0113688 2.08001 0.0343244 2.1715 0.129301 2.24247L2.63047 4.1051L0.213233 5.96774C0.14481 6.01875 0.101346 6.08086 0.0879846 6.14673C0.0746229 6.2126 0.0919223 6.27947 0.137836 6.33942C0.18375 6.39938 0.256357 6.44991 0.347065 6.48504C0.437773 6.52017 0.542786 6.53842 0.649678 6.53765Z" fill="#10AA42"/>
</svg>
