<svg width="73" height="72" viewBox="0 0 73 72" fill="none" xmlns="http://www.w3.org/2000/svg">
<rect x="0.5" width="72" height="72" rx="36" fill="#0CA941"/>
<path d="M24.5014 27.8573C25.9738 27.8573 27.2306 27.3274 28.2721 26.267C29.3139 25.2068 29.8348 23.9272 29.8348 22.4288C29.8348 20.9305 29.3139 19.6509 28.2721 18.5905C27.2306 17.5302 25.9738 17 24.5014 17C23.029 17 21.7722 17.5302 20.7305 18.5905C19.6889 19.6509 19.168 20.9302 19.168 22.4288C19.168 23.9275 19.6889 25.2068 20.7305 26.267C21.7722 27.3271 23.029 27.8573 24.5014 27.8573Z" fill="#ECF1E7"/>
<path d="M30.8409 36.3279C32.4034 37.9178 34.2886 38.7131 36.4973 38.7131C38.7061 38.7131 40.5912 37.9178 42.1537 36.3279C43.7159 34.737 44.4973 32.8179 44.4973 30.5702C44.4973 28.3224 43.7159 26.4035 42.1537 24.813C40.5912 23.2225 38.7061 22.4272 36.4973 22.4272C34.2886 22.4272 32.4033 23.2226 30.8409 24.813C29.2785 26.4032 28.4971 28.3222 28.4971 30.5702C28.4971 32.8183 29.2785 34.7372 30.8409 36.3279Z" fill="#ECF1E7"/>
<path d="M48.5005 27.8573C49.9724 27.8573 51.2294 27.3274 52.271 26.267C53.3126 25.2068 53.8333 23.9272 53.8333 22.4288C53.8333 20.9305 53.3126 19.6509 52.271 18.5905C51.2295 17.5302 49.9724 17 48.5005 17C47.0277 17 45.7709 17.5302 44.7292 18.5905C43.6879 19.6509 43.167 20.9302 43.167 22.4288C43.167 23.9275 43.6879 25.2068 44.7292 26.267C45.7709 27.3271 47.0277 27.8573 48.5005 27.8573Z" fill="#ECF1E7"/>
<path d="M53.9166 27.8578C53.8337 27.8578 53.5316 28.0063 53.0106 28.3031C52.4902 28.6001 51.8127 28.9006 50.9796 29.2046C50.1466 29.5083 49.3197 29.6603 48.5006 29.6603C47.5697 29.6603 46.6467 29.4979 45.7297 29.1726C45.7987 29.6954 45.8336 30.162 45.8336 30.572C45.8336 32.5371 45.271 34.3465 44.1455 36.0006C46.396 36.0715 48.236 36.9761 49.6671 38.7154H52.4587C53.5974 38.7154 54.5558 38.4285 55.3334 37.8561C56.1111 37.2839 56.5002 36.4459 56.5002 35.3434C56.5004 30.3527 55.6396 27.8575 53.9166 27.8578Z" fill="#ECF1E7"/>
<path d="M50.802 45.0017C50.6561 44.1746 50.4719 43.4075 50.2496 42.7009C50.0273 41.9937 49.7287 41.305 49.3542 40.6334C48.979 39.9625 48.5483 39.3895 48.0622 38.9157C47.5757 38.4419 46.9818 38.0643 46.2806 37.7811C45.5795 37.4984 44.8048 37.3572 43.9577 37.3572C43.8187 37.3572 43.5202 37.5092 43.0618 37.8132C42.6033 38.1169 42.0968 38.4568 41.541 38.8309C40.9853 39.205 40.2429 39.5446 39.3117 39.8486C38.3805 40.1526 37.4431 40.3046 36.4991 40.3046C35.5548 40.3046 34.6172 40.1526 33.6866 39.8486C32.7557 39.5446 32.0129 39.205 31.4573 38.8309C30.9015 38.4568 30.3948 38.1169 29.9365 37.8132C29.478 37.5092 29.1796 37.3572 29.0405 37.3572C28.1934 37.3572 27.4191 37.4984 26.7176 37.7811C26.0161 38.0643 25.4224 38.4419 24.9364 38.9157C24.4499 39.389 24.0197 39.9625 23.6444 40.6334C23.2696 41.305 22.971 41.9937 22.7487 42.7009C22.5265 43.4075 22.3427 44.1746 22.1966 45.0017C22.0507 45.8288 21.9535 46.599 21.9049 47.3132C21.8563 48.0272 21.832 48.759 21.832 49.5082C21.832 51.2043 22.3388 52.5441 23.3527 53.5263C24.3669 54.5084 25.7142 55 27.3945 55H45.6033C47.2837 55 48.6309 54.5084 49.6453 53.5263C50.6592 52.5441 51.1661 51.2043 51.1661 49.5082C51.1661 48.759 51.1417 48.0274 51.0937 47.3132C51.0444 46.599 50.9473 45.8288 50.802 45.0017Z" fill="#ECF1E7"/>
<path d="M28.8542 36.0006C27.7292 34.3465 27.1668 32.5371 27.167 30.572C27.167 30.162 27.2018 29.6957 27.2711 29.1726C26.3543 29.4977 25.4307 29.6603 24.5001 29.6603C23.6806 29.6603 22.8545 29.5084 22.021 29.2046C21.1879 28.9006 20.5106 28.6001 19.9899 28.3031C19.469 28.0063 19.1667 27.8578 19.0835 27.8578C17.3611 27.8579 16.5 30.3531 16.5 35.3434C16.5 36.4459 16.8889 37.2839 17.6666 37.8561C18.4445 38.4285 19.4029 38.7149 20.5414 38.7149H23.3333C24.7641 36.9761 26.6041 36.0714 28.8542 36.0006Z" fill="#ECF1E7"/>
</svg>
