<svg width="72" height="72" viewBox="0 0 72 72" fill="none" xmlns="http://www.w3.org/2000/svg">
<rect width="72" height="72" rx="36" fill="#0CA941"/>
<path d="M39.8884 32.553C40.0186 31.5172 40.4407 30.5395 41.1057 29.7338C41.7706 28.928 42.6511 28.3272 43.6447 28.0012C44.6383 27.6753 45.7042 27.6376 46.7185 27.8925C47.7327 28.1474 48.6536 28.6845 49.3741 29.4412C49.833 29.2217 50.3352 29.1069 50.8441 29.1051C50.0114 28.0076 48.8669 27.1859 47.5596 26.7471C46.2523 26.3082 44.843 26.2725 43.5151 26.6446C42.1872 27.0167 41.0024 27.7794 40.115 28.8333C39.2276 29.8871 38.6788 31.1833 38.54 32.553H39.8884Z" fill="#ECF1E7"/>
<path d="M44.1761 32.5535H45.7436C45.8509 32.3837 45.9768 32.2262 46.1189 32.0841C45.9618 31.9828 45.7857 31.9144 45.6013 31.8832C45.417 31.8519 45.2281 31.8585 45.0464 31.9024C44.8646 31.9463 44.6937 32.0267 44.544 32.1386C44.3943 32.2506 44.2691 32.3917 44.1758 32.5535H44.1761Z" fill="#ECF1E7"/>
<path d="M47.3939 31.3645C47.471 31.3457 47.5493 31.3303 47.6288 31.3183C47.7765 30.9369 47.9911 30.5848 48.2627 30.2787C47.7212 29.7519 47.0456 29.383 46.3091 29.212C45.5726 29.041 44.8033 29.0745 44.0844 29.3087C43.3656 29.5429 42.7246 29.969 42.231 30.5407C41.7374 31.1125 41.41 31.8082 41.2842 32.5524H42.6948C42.8186 32.0733 43.0693 31.6362 43.4206 31.287C43.7719 30.9379 44.2109 30.6895 44.6915 30.568C45.1721 30.4465 45.6766 30.4564 46.1521 30.5965C46.6275 30.7367 47.0565 31.0019 47.3939 31.3645Z" fill="#ECF1E7"/>
<path d="M45.328 33.9905C45.328 33.9713 45.3289 33.9522 45.3293 33.9331H26.1923L25.9759 35.4119C25.9601 35.5205 25.9184 35.6237 25.8545 35.713L22.7598 40.0375L25.0622 42.0948C25.1346 42.1595 25.1925 42.2387 25.2322 42.3273C25.2718 42.4158 25.2923 42.5117 25.2923 42.6087V45.1445H26.6929C26.992 45.1453 27.2883 45.0869 27.5646 44.9727C27.8409 44.8584 28.0918 44.6906 28.3027 44.4789C28.4323 44.3496 28.608 44.2769 28.7913 44.2769C28.9745 44.2769 29.1503 44.3496 29.2799 44.4789C29.4094 44.6082 29.4823 44.7836 29.4823 44.9665C29.4823 45.1494 29.4095 45.3248 29.2799 45.4542C28.941 45.7943 28.5378 46.064 28.0937 46.2475C27.6497 46.4311 27.1735 46.525 26.6929 46.5236H25.2923V51.9349L30.8957 52.5563C31.0647 52.575 31.2208 52.6553 31.3342 52.7818C31.4476 52.9082 31.5103 53.0719 31.5103 53.2416V56H45.328V50.4833C45.328 50.4259 45.3351 50.3688 45.3493 50.3132L46.2095 46.9379C47.0764 43.5409 47.3815 40.0254 47.113 36.5302C46.5904 36.3407 46.1389 35.9954 45.8195 35.5411C45.5002 35.0868 45.3286 34.5455 45.328 33.9905ZM33.5099 38.0232L33.4182 38.2063C33.1272 38.7872 32.68 39.2757 32.1265 39.6171C31.573 39.9586 30.9352 40.1394 30.2845 40.1394C29.6339 40.1394 28.9961 39.9586 28.4426 39.6171C27.8891 39.2757 27.4418 38.7872 27.1509 38.2063L27.0591 38.0232C26.9771 37.8597 26.9636 37.6703 27.0216 37.4968C27.0795 37.3233 27.2041 37.1798 27.368 37.098C27.5319 37.0162 27.7216 37.0028 27.8955 37.0606C28.0693 37.1184 28.213 37.2428 28.295 37.4064L28.3867 37.5896C28.5629 37.9414 28.8338 38.2372 29.169 38.444C29.5042 38.6508 29.8904 38.7603 30.2845 38.7603C30.6786 38.7603 31.0648 38.6508 31.4 38.444C31.7352 38.2372 32.0061 37.9414 32.1823 37.5896L32.2741 37.4063C32.3569 37.2442 32.5006 37.1213 32.6737 37.0645C32.8469 37.0076 33.0356 37.0214 33.1986 37.1028C33.3617 37.1842 33.4859 37.3266 33.5442 37.499C33.6025 37.6714 33.5902 37.8598 33.5099 38.0232Z" fill="#ECF1E7"/>
<path d="M51.9403 30.8025C51.8166 30.7234 51.685 30.6577 51.5475 30.6065C51.3252 30.5261 51.0907 30.4849 50.8543 30.4847C50.3807 30.4863 49.9218 30.649 49.5533 30.946C49.1849 31.243 48.929 31.6566 48.8278 32.1184C48.7975 32.2722 48.7149 32.4109 48.5941 32.5111C48.4733 32.6112 48.3216 32.6668 48.1646 32.6684H48.0715C47.3593 32.6684 46.7457 33.2135 46.7106 33.9236C46.7018 34.1025 46.7294 34.2813 46.7919 34.4492C46.8543 34.6171 46.9503 34.7707 47.0739 34.9005C47.1976 35.0303 47.3464 35.1337 47.5112 35.2044C47.6761 35.2751 47.8537 35.3117 48.0331 35.3119H53.637C54.3492 35.3119 54.9629 34.7667 54.9979 34.0566C55.0067 33.8778 54.979 33.699 54.9165 33.5311C54.8541 33.3633 54.7581 33.2098 54.6344 33.0801C54.5108 32.9503 54.362 32.847 54.1972 32.7763C54.0323 32.7056 53.8548 32.669 53.6754 32.6688H53.5614C53.4039 32.6704 53.2507 32.6179 53.1273 32.5202C53.0039 32.4225 52.9179 32.2855 52.8836 32.1321C52.7996 31.7301 52.5965 31.3627 52.3008 31.0773C52.1939 30.9758 52.0765 30.886 51.9505 30.8094L51.9403 30.8025Z" fill="#ECF1E7"/>
<path d="M21.1408 23.307C21.1516 23.2171 21.1445 23.1259 21.1199 23.0387C21.0953 22.9515 21.0538 22.87 20.9976 22.7988C20.9415 22.7277 20.8719 22.6682 20.7927 22.6239C20.7136 22.5796 20.6264 22.5513 20.5363 22.5406C19.4844 22.4162 18.4181 22.5564 17.4343 22.9483C17.3501 22.9819 17.2733 23.0318 17.2084 23.095C17.1434 23.1583 17.0916 23.2336 17.0559 23.3169C17.0201 23.4001 17.0012 23.4896 17.0001 23.5801C16.9989 23.6707 17.0157 23.7606 17.0494 23.8446C17.0831 23.9287 17.1331 24.0054 17.1964 24.0702C17.2598 24.135 17.3353 24.1867 17.4187 24.2224C17.5021 24.2581 17.5917 24.277 17.6825 24.2781C17.7732 24.2792 17.8632 24.2625 17.9475 24.2288C18.7166 23.9224 19.5502 23.8128 20.3726 23.9099C20.4627 23.9208 20.5541 23.9139 20.6416 23.8895C20.729 23.8651 20.8108 23.8237 20.8821 23.7677C20.9535 23.7117 21.0131 23.6422 21.0575 23.5631C21.1019 23.4841 21.1302 23.397 21.1408 23.307Z" fill="#ECF1E7"/>
<path d="M22.7189 24.8346C22.9211 24.9829 23.1116 25.1464 23.2889 25.3235L23.4217 25.456C23.5512 25.5853 23.727 25.658 23.9102 25.658C24.0934 25.658 24.2692 25.5853 24.3987 25.456C24.5283 25.3267 24.6011 25.1513 24.6011 24.9684C24.6011 24.7855 24.5283 24.6101 24.3987 24.4808L24.266 24.3483C24.039 24.1218 23.7952 23.9127 23.5365 23.723C23.3888 23.6147 23.204 23.5695 23.0229 23.5972C22.8417 23.6249 22.679 23.7233 22.5705 23.8708C22.4621 24.0182 22.4167 24.2027 22.4445 24.3835C22.4723 24.5643 22.5709 24.7267 22.7186 24.835L22.7189 24.8346Z" fill="#ECF1E7"/>
<path d="M32.1999 21.4853C32.1994 21.4967 32.1982 21.508 32.1982 21.5198V26.0563L31.5073 26.1433L33.41 27.926L32.9205 30.4845L35.2071 29.2291L37.4936 30.4845L37.0041 27.926L38.9069 26.1433L38.2405 26.0594C38.2421 26.0405 38.2434 26.0214 38.2434 26.0021V21.5198C38.2434 21.4477 38.232 21.3762 38.2098 21.3076C38.5461 21.1237 38.8115 20.8332 38.9641 20.4821C39.1168 20.1309 39.148 19.7391 39.0529 19.3682C38.9578 18.9974 38.7418 18.6687 38.4388 18.434C38.1359 18.1993 37.7633 18.0719 37.3798 18.0718H36.9151C36.7724 17.6685 36.5079 17.3193 36.1581 17.0723C35.8082 16.8253 35.3903 16.6926 34.9617 16.6926C34.5332 16.6926 34.1152 16.8253 33.7654 17.0723C33.4155 17.3193 33.151 17.6685 33.0083 18.0718H32.5436C32.1154 18.0718 31.7025 18.2306 31.385 18.5173C31.0674 18.804 30.8679 19.1982 30.8251 19.6234C30.7822 20.0486 30.8992 20.4746 31.1532 20.8186C31.4073 21.1627 31.7803 21.4002 32.1999 21.4853ZM36.8617 21.5198V25.8858L36.3176 25.8174L35.207 23.4603L34.0964 25.8174L33.58 25.8824V21.5198H36.8617Z" fill="#ECF1E7"/>
<path d="M26.6725 24.6226C26.8819 24.6223 27.0894 24.5838 27.2849 24.509C28.2299 25.5914 28.7488 26.9796 28.7451 28.4153C28.7451 28.5982 28.8179 28.7736 28.9475 28.9029C29.077 29.0323 29.2528 29.1049 29.436 29.1049C29.6192 29.1049 29.795 29.0323 29.9245 28.9029C30.0541 28.7736 30.1269 28.5982 30.1269 28.4153C30.1316 26.6187 29.4718 24.8835 28.2739 23.5423C28.4119 23.2 28.4362 22.8225 28.3431 22.4653C28.2501 22.1082 28.0446 21.7903 27.757 21.5584C27.4695 21.3266 27.1149 21.1929 26.7455 21.1772C26.3762 21.1615 26.0115 21.2645 25.7052 21.4712C25.3989 21.6778 25.1671 21.9771 25.0439 22.325C24.9208 22.6729 24.9128 23.0511 25.0211 23.404C25.1293 23.7568 25.3482 24.0656 25.6455 24.285C25.9428 24.5043 26.3028 24.6227 26.6725 24.6226Z" fill="#ECF1E7"/>
<path d="M23.8149 29.3134C24.4011 29.3025 24.9806 29.439 25.5001 29.7104C26.0195 29.9817 26.4622 30.3792 26.7873 30.8661C26.8894 31.0172 27.0473 31.1218 27.2264 31.1571C27.4056 31.1924 27.5914 31.1554 27.7434 31.0543C27.8953 30.9532 28.0009 30.7962 28.0372 30.6175C28.0735 30.4389 28.0374 30.2532 27.9369 30.101C27.4749 29.4087 26.8427 28.8462 26.1006 28.4674C25.3586 28.0886 24.5316 27.9061 23.6988 27.9375C23.5099 27.5888 23.2064 27.3156 22.8395 27.164C22.4725 27.0123 22.0645 26.9914 21.6839 27.1047C21.3033 27.218 20.9734 27.4587 20.7497 27.7862C20.5259 28.1137 20.422 28.5082 20.4553 28.9032C20.4887 29.2982 20.6572 29.6697 20.9327 29.9553C21.2082 30.2408 21.5738 30.423 21.968 30.4712C22.3622 30.5193 22.761 30.4306 23.0974 30.2198C23.4337 30.009 23.6871 29.689 23.8149 29.3137V29.3134Z" fill="#ECF1E7"/>
<path d="M46.6301 24.6158L46.5222 24.8313C46.4816 24.9123 46.4574 25.0005 46.451 25.0908C46.4445 25.1812 46.456 25.2719 46.4846 25.3578C46.5133 25.4437 46.5587 25.5232 46.6181 25.5916C46.6775 25.66 46.7499 25.7161 46.831 25.7566C46.9122 25.7971 47.0005 25.8213 47.091 25.8277C47.1815 25.8341 47.2724 25.8227 47.3585 25.7941C47.4446 25.7655 47.5242 25.7202 47.5927 25.6609C47.6613 25.6016 47.7174 25.5293 47.758 25.4483L47.8659 25.2328C48.3946 24.1763 49.2508 23.3182 50.3073 22.7864C50.558 23.0818 50.9024 23.2827 51.2834 23.3555C51.6644 23.4283 52.0588 23.3687 52.4011 23.1866C52.7434 23.0044 53.0128 22.7107 53.1645 22.3544C53.3163 21.9981 53.3411 21.6006 53.235 21.2283C53.1289 20.8559 52.8981 20.531 52.5812 20.3078C52.2643 20.0845 51.8803 19.9764 51.4932 20.0013C51.1062 20.0263 50.7393 20.1828 50.4538 20.4449C50.1683 20.707 49.9813 21.0587 49.924 21.4416C48.4949 22.0929 47.3324 23.2132 46.6301 24.6158Z" fill="#ECF1E7"/>
<path d="M41.8716 23.5881C42.0548 23.5881 42.2305 23.5154 42.3601 23.3861C42.4897 23.2568 42.5625 23.0814 42.5625 22.8985V22.7801C42.5601 21.8697 42.87 20.9859 43.4405 20.2756C43.8866 20.6435 44.45 20.8397 45.0286 20.8284C45.6072 20.8171 46.1626 20.5992 46.5939 20.2142C47.0253 19.8291 47.3041 19.3025 47.3797 18.7298C47.4553 18.1571 47.3227 17.5764 47.0059 17.093C46.6892 16.6096 46.2093 16.2555 45.6534 16.095C45.0975 15.9346 44.5024 15.9784 43.976 16.2184C43.4497 16.4585 43.027 16.879 42.7847 17.4036C42.5424 17.9281 42.4966 18.522 42.6555 19.0774C41.7054 20.0766 41.1773 21.4026 41.1807 22.7801V22.8985C41.1807 23.0814 41.2535 23.2568 41.383 23.3861C41.5126 23.5154 41.6883 23.5881 41.8716 23.5881Z" fill="#ECF1E7"/>
</svg>
