<svg width="72" height="72" viewBox="0 0 72 72" fill="none" xmlns="http://www.w3.org/2000/svg">
<rect width="72" height="72" rx="36" fill="#0CA941"/>
<path fill-rule="evenodd" clip-rule="evenodd" d="M44.5156 24.2389C47.9836 25.0548 49.3102 27.1108 50.9734 29.9406H44.5156V24.2389ZM24.2483 30.1782C24.9273 30.1782 25.4202 30.5105 25.4202 31.2871C25.4202 31.9421 24.8974 32.4734 24.2516 32.4752H17.1719C16.5246 32.4752 16 33.0074 16 33.6634C16 34.3196 16.5246 34.8515 17.1719 34.8515H27.7188C28.3721 34.8515 28.8952 35.383 28.8952 36.0396C28.8952 36.6959 28.3706 37.2277 27.7233 37.2277H17.1719C16.5246 37.2277 16 37.7596 16 38.4158C16 39.0721 16.5246 39.604 17.1719 39.604H19.75V43.1683C19.75 43.8246 20.2746 44.3564 20.9219 44.3564H23.2775C23.6974 46.4536 25.5251 48 27.6797 48C29.8342 48 31.6619 46.4536 32.0818 44.3564H43.9807C44.4006 46.4536 46.2283 48 48.3828 48C50.5374 48 52.3651 46.4536 52.785 44.3564H54.8281C55.4754 44.3564 56 43.8246 56 43.1683V36.0396C56 32.5535 52.3733 32.3221 52.3699 32.3168H43.3438C42.6965 32.3168 42.1719 31.785 42.1719 31.1287V24H20.9219C20.2746 24 19.75 24.5319 19.75 25.1881V27.802H18.3438C17.6965 27.802 17.1719 28.3338 17.1719 28.9901C17.1719 29.6463 17.6965 30.1782 18.3438 30.1782H24.2483ZM49.902 41.9053C50.7409 42.7559 50.7409 44.1355 49.902 44.9861C48.5525 46.3543 46.2344 45.3809 46.2344 43.4455C46.2344 41.5105 48.5525 40.5371 49.902 41.9053ZM29.1989 41.9053C30.0378 42.7559 30.0378 44.1355 29.1989 44.9861C27.8494 46.3543 25.5312 45.3809 25.5312 43.4455C25.5312 41.5105 27.8494 40.5371 29.1989 41.9053Z" fill="#ECF1E7"/>
</svg>
