<svg width="136" height="173" viewBox="0 0 136 173" fill="none" xmlns="http://www.w3.org/2000/svg">
<path d="M6.16016 88.5759V108.772C6.16016 117.654 15.8486 124.945 27.6529 124.945H51.373C63.1773 124.945 72.8658 117.654 72.8658 108.772V88.5759H6.16016Z" fill="#ECC742"/>
<path d="M70.1927 101.23C67.9655 101.23 66.7405 100.643 65.7382 100.224C64.8473 99.8049 64.0678 99.4697 62.5087 99.4697C60.9497 99.4697 60.1701 99.8049 59.2792 100.224C58.277 100.727 57.052 101.23 54.8248 101.23C52.5975 101.23 51.3726 100.643 50.3703 100.224C49.4794 99.8049 48.6999 99.4697 47.1408 99.4697C45.5818 99.4697 44.8022 99.8049 43.9113 100.224C42.9091 100.727 41.6841 101.23 39.4569 101.23C37.2296 101.23 36.0047 100.643 35.0024 100.224C34.1115 99.8049 33.332 99.4697 31.7729 99.4697C30.2139 99.4697 29.4343 99.8049 28.5434 100.224C27.5412 100.727 26.3162 101.23 24.089 101.23C21.8617 101.23 20.6367 100.643 19.6345 100.224C18.7436 99.8049 17.9641 99.4697 16.405 99.4697C14.8459 99.4697 14.0664 99.8049 13.1755 100.224C12.1733 100.727 10.9483 101.23 8.72106 101.23C6.49382 101.23 5.26885 100.643 4.26659 100.224C3.3757 99.8049 2.59617 99.4697 1.03711 99.4697V97.71C3.26434 97.71 4.48932 98.2966 5.49158 98.7156C6.38247 99.1346 7.16199 99.4697 8.72106 99.4697C10.2801 99.4697 11.0596 99.1346 11.9505 98.7156C12.9528 98.2128 14.1778 97.71 16.405 97.71C18.6322 97.71 19.8572 98.2966 20.8595 98.7156C21.7504 99.1346 22.5299 99.4697 24.089 99.4697C25.648 99.4697 26.4276 99.1346 27.3185 98.7156C28.3207 98.2128 29.5457 97.71 31.7729 97.71C34.0002 97.71 35.2251 98.2966 36.2274 98.7156C37.1183 99.1346 37.8978 99.4697 39.4569 99.4697C41.0159 99.4697 41.7955 99.1346 42.6864 98.7156C43.6886 98.2128 44.9136 97.71 47.1408 97.71C49.3681 97.71 50.593 98.2966 51.5953 98.7156C52.4862 99.1346 53.2657 99.4697 54.8248 99.4697C56.3838 99.4697 57.1634 99.1346 58.0543 98.7156C59.0565 98.2128 60.2815 97.71 62.5087 97.71C64.736 97.71 65.9609 98.2966 66.9632 98.7156C67.8541 99.1346 68.6336 99.4697 70.1927 99.4697C71.7518 99.4697 72.5313 99.1346 73.4222 98.7156C74.4244 98.2128 75.6494 97.71 77.8767 97.71V99.4697C76.3176 99.4697 75.5381 99.8049 74.6472 100.224C73.6449 100.643 72.4199 101.23 70.1927 101.23Z" fill="white"/>
<path d="M70.1927 110.196C67.9655 110.196 66.7405 109.609 65.7382 109.19C64.8473 108.771 64.0678 108.436 62.5087 108.436C60.9497 108.436 60.1701 108.771 59.2792 109.19C58.277 109.693 57.052 110.196 54.8248 110.196C52.5975 110.196 51.3726 109.609 50.3703 109.19C49.4794 108.771 48.6999 108.436 47.1408 108.436C45.5818 108.436 44.8022 108.771 43.9113 109.19C42.9091 109.693 41.6841 110.196 39.4569 110.196C37.2296 110.196 36.0047 109.609 35.0024 109.19C34.1115 108.771 33.332 108.436 31.7729 108.436C30.2139 108.436 29.4343 108.771 28.5434 109.19C27.5412 109.693 26.3162 110.196 24.089 110.196C21.8617 110.196 20.6367 109.609 19.6345 109.19C18.7436 108.771 17.9641 108.436 16.405 108.436C14.8459 108.436 14.0664 108.771 13.1755 109.19C12.1733 109.693 10.9483 110.196 8.72106 110.196C6.49382 110.196 5.26885 109.609 4.26659 109.19C3.3757 108.771 2.59617 108.436 1.03711 108.436V106.676C3.26434 106.676 4.48932 107.263 5.49158 107.682C6.38247 108.101 7.16199 108.436 8.72106 108.436C10.2801 108.436 11.0596 108.101 11.9505 107.682C12.9528 107.179 14.1778 106.676 16.405 106.676C18.6322 106.676 19.8572 107.263 20.8595 107.682C21.7504 108.101 22.5299 108.436 24.089 108.436C25.648 108.436 26.4276 108.101 27.3185 107.682C28.3207 107.179 29.5457 106.676 31.7729 106.676C34.0002 106.676 35.2251 107.263 36.2274 107.682C37.1183 108.101 37.8978 108.436 39.4569 108.436C41.0159 108.436 41.7955 108.101 42.6864 107.682C43.6886 107.179 44.9136 106.676 47.1408 106.676C49.3681 106.676 50.593 107.263 51.5953 107.682C52.4862 108.101 53.2657 108.436 54.8248 108.436C56.3838 108.436 57.1634 108.101 58.0543 107.682C59.0565 107.179 60.2815 106.676 62.5087 106.676C64.736 106.676 65.9609 107.263 66.9632 107.682C67.8541 108.101 68.6336 108.436 70.1927 108.436C71.7518 108.436 72.5313 108.101 73.4222 107.682C74.4244 107.179 75.6494 106.676 77.8767 106.676V108.436C76.3176 108.436 75.5381 108.771 74.6472 109.19C73.6449 109.609 72.4199 110.196 70.1927 110.196Z" fill="white"/>
<path opacity="0.1" d="M57.4967 88.5759V108.772C57.4967 117.654 47.8082 124.945 36.0039 124.945H51.2605C63.0648 124.945 72.7533 117.654 72.7533 108.772V88.5759H57.4967Z" fill="#482C80"/>
<path d="M77.8767 85.5591H0.925781V91.5926H77.8767V85.5591Z" fill="#D4A000"/>
<path d="M73.7554 98.3803C72.6418 95.615 71.6395 93.1848 70.5259 90.4194C67.9646 83.7993 65.4033 77.1792 62.8419 70.559C59.7238 62.5143 56.6057 54.4696 53.4876 46.4249C50.8149 39.4695 48.1422 32.598 45.4695 25.6427C44.5786 23.3801 43.6877 21.0337 42.7968 18.7711C42.3514 17.6817 42.0173 16.5086 41.5719 15.503C41.5719 15.4192 41.5719 15.4192 41.4605 15.3354C41.4605 15.2516 41.4605 15.2516 41.3491 15.1678C41.3491 15.1678 41.3491 15.1678 41.3491 15.084L41.2378 15.0002C41.0151 14.8326 40.7923 14.8326 40.5696 14.9164C40.3469 15.0002 40.2355 15.084 40.1242 15.2516C38.8992 18.0169 37.7856 20.7823 36.5606 23.5477C33.6652 30.1678 30.8811 36.788 27.9857 43.4081C24.5335 51.369 21.0813 59.3299 17.6291 67.2909C14.6223 74.2462 11.6156 81.1177 8.6088 88.0731C7.60655 90.3356 6.60431 92.5982 5.60206 94.9446C5.15661 95.9502 4.48842 97.1234 4.15434 98.2127C4.15434 98.2965 4.15433 98.2965 4.04297 98.3803C4.04297 98.4641 4.04297 98.5479 4.04297 98.6317C4.04297 98.6317 4.04297 98.6317 4.04297 98.7155C4.04297 98.7993 4.15434 98.8831 4.15434 98.9669C9.94514 106.593 15.736 114.135 21.5268 121.76C22.3063 122.85 23.0858 123.855 23.9767 124.945C24.1995 125.28 24.979 125.28 25.2017 124.945C29.8789 117.319 34.5561 109.693 39.3446 102.068C39.7901 101.313 40.2355 100.643 40.681 99.8887C44.5786 107.095 48.4763 114.302 52.374 121.593C52.9308 122.682 53.4875 123.771 54.1557 124.861C54.3784 125.28 55.158 125.447 55.3807 124.945C60.6147 117.319 65.8487 109.777 71.0827 102.151C71.7509 101.146 72.5304 100.056 73.1986 99.0507C73.644 98.9669 73.9781 98.7155 73.7554 98.3803ZM43.465 23.9667C46.0263 30.5868 48.5877 37.207 51.149 43.8271C54.2671 51.8718 57.3852 59.9165 60.5033 67.9612C63.176 74.9166 65.8487 81.7881 68.5214 88.7434C69.4123 91.006 70.3032 93.3524 71.1941 95.615C71.4168 96.2016 71.9736 97.291 72.3077 98.0452C64.9578 98.0452 57.4966 98.0452 50.1467 98.0452C47.3627 98.0452 44.5786 98.0452 41.6832 98.0452C41.6832 95.4474 41.6832 92.8496 41.6832 90.3356C41.6832 83.7155 41.6832 77.0954 41.6832 70.4752C41.6832 62.5143 41.6832 54.5534 41.6832 46.5925C41.6832 39.6371 41.6832 32.7656 41.6832 25.8103C41.6832 23.6315 41.6832 21.4527 41.6832 19.2739C42.24 20.7823 42.7969 22.3745 43.465 23.9667ZM9.27698 90.4194C12.1724 83.7993 14.9564 77.1792 17.8518 70.559C21.3041 62.5981 24.7563 54.6372 28.2085 46.6763C31.2152 39.7209 34.222 32.8494 37.2288 25.8941C38.231 23.6315 39.2333 21.3689 40.2355 19.0225C40.2355 18.9387 40.3469 18.8549 40.3469 18.7711C40.3469 20.3633 40.3469 22.0393 40.3469 23.6315C40.3469 30.2516 40.3469 36.8718 40.3469 43.4919C40.3469 51.4528 40.3469 59.4137 40.3469 67.3747C40.3469 74.33 40.3469 81.2015 40.3469 88.1568C40.3469 90.4194 40.3469 92.682 40.3469 94.9446C40.3469 95.8664 40.2355 96.9558 40.3469 97.8776C31.4379 97.8776 22.529 97.8776 13.5087 97.8776C11.0588 97.8776 8.49746 97.8776 6.0475 97.8776C7.04975 95.5312 8.16336 92.9334 9.27698 90.4194ZM26.204 121.174C25.7585 121.928 25.2017 122.682 24.7562 123.52C19.1882 116.23 13.6201 108.939 8.052 101.565C7.38383 100.727 6.82704 99.8887 6.15887 99.0507C13.3974 99.0507 20.7472 99.0507 27.9857 99.0507C31.8834 99.0507 35.8924 99.0507 39.7901 99.0507C35.2242 106.509 30.7698 113.883 26.204 121.174ZM56.6057 121.174C56.0489 121.928 55.6034 122.682 55.0466 123.353C51.149 116.146 47.2513 108.855 43.3537 101.649C42.9082 100.811 42.4627 99.9725 42.0173 99.0507C49.5899 99.0507 57.1625 99.0507 64.7351 99.0507C67.0737 99.0507 69.5237 99.0507 71.8622 99.0507C66.7396 106.509 61.617 113.883 56.6057 121.174Z" fill="#6D3E1D"/>
<path d="M7.2727 98.5479C7.2727 99.3859 6.38178 100.056 5.26817 100.056C4.15455 100.056 3.26367 99.3859 3.26367 98.5479C3.26367 97.7099 4.15455 97.0395 5.26817 97.0395C6.38178 96.9557 7.2727 97.6261 7.2727 98.5479Z" fill="#6D3E1D"/>
<path d="M42.9075 98.5479C42.9075 99.3859 42.0166 100.056 40.9029 100.056C39.7893 100.056 38.8984 99.3859 38.8984 98.5479C38.8984 97.7099 39.7893 97.0395 40.9029 97.0395C42.0166 96.9557 42.9075 97.6261 42.9075 98.5479Z" fill="#6D3E1D"/>
<path d="M74.9797 98.5479C74.9797 99.3859 74.0889 100.056 72.9752 100.056C71.8616 100.056 70.9707 99.3859 70.9707 98.5479C70.9707 97.7099 71.8616 97.0395 72.9752 97.0395C74.0889 96.9557 74.9797 97.6261 74.9797 98.5479Z" fill="#6D3E1D"/>
<path d="M26.8723 124.693C26.8723 125.531 25.9814 126.202 24.8678 126.202C23.7542 126.202 22.8633 125.531 22.8633 124.693C22.8633 123.855 23.7542 123.185 24.8678 123.185C25.9814 123.185 26.8723 123.772 26.8723 124.693Z" fill="#6D3E1D"/>
<path d="M56.9406 124.693C56.9406 125.531 56.0498 126.202 54.9361 126.202C53.8225 126.202 52.9316 125.531 52.9316 124.693C52.9316 123.855 53.8225 123.185 54.9361 123.185C56.0498 123.185 56.9406 123.772 56.9406 124.693Z" fill="#6D3E1D"/>
<path d="M41.0147 17.4304C42.9213 17.4304 44.4669 16.2673 44.4669 14.8326C44.4669 13.3979 42.9213 12.2349 41.0147 12.2349C39.1081 12.2349 37.5625 13.3979 37.5625 14.8326C37.5625 16.2673 39.1081 17.4304 41.0147 17.4304Z" fill="#6D3E1D"/>
<path d="M41.7934 14.8325C41.7934 10.6425 41.7934 6.45254 41.7934 2.26258C41.7934 1.67598 41.7934 1.08939 41.7934 0.502795C41.7934 -0.167598 40.3457 -0.167598 40.3457 0.502795C40.3457 4.69275 40.3457 8.88271 40.3457 13.0727C40.3457 13.6593 40.3457 14.2459 40.3457 14.8325C40.3457 15.5866 41.7934 15.5866 41.7934 14.8325Z" fill="#6D3E1D"/>
<path d="M83.1223 158.357C90.3253 154.245 93.4825 148.251 90.1741 144.97C86.8658 141.688 78.3447 142.361 71.1417 146.473C63.9387 150.585 60.7816 156.579 64.0899 159.86C67.3983 163.142 75.9194 162.469 83.1223 158.357Z" fill="#8AC27C"/>
<path d="M87.2311 165.336C86.897 161.062 90.7947 157.459 92.6878 157.291C94.8037 157.207 99.1468 160.391 99.5922 164.665C99.9263 168.939 97.4764 172.542 94.1356 172.71C90.6833 172.878 87.5652 169.609 87.2311 165.336Z" fill="#8AC27C"/>
<path d="M102.043 149.246C99.7046 144.386 102.711 139.107 104.939 138.52C107.389 137.85 113.848 140.615 116.186 145.475C118.525 150.336 117.188 155.112 113.291 156.202C109.282 157.207 104.27 154.107 102.043 149.246Z" fill="#8AC27C"/>
<path d="M129.708 137.121C132.736 135.018 131.404 130.225 126.732 126.416C122.06 122.606 115.818 121.223 112.79 123.326C109.762 125.429 111.094 130.222 115.765 134.031C120.437 137.841 126.679 139.224 129.708 137.121Z" fill="#8AC27C"/>
<path d="M90.4613 126.872C94.1362 124.274 99.7043 124.274 100.929 125.279C102.154 126.285 101.709 130.391 97.9225 132.989C94.2476 135.587 89.5704 136.257 87.4545 134.581C85.45 132.905 86.7864 129.469 90.4613 126.872Z" fill="#8AC27C"/>
<path d="M103.157 54.7206C97.5885 55.2234 92.6886 52.458 92.3545 51.0335C92.1318 49.4413 96.1408 46.0893 101.709 45.5865C107.277 45.0837 112.066 46.7597 112.511 49.2737C112.845 51.7877 108.613 54.2178 103.157 54.7206Z" fill="#8AC27C"/>
<path d="M85.6735 67.7094C86.1189 65.0279 89.237 63.1005 90.462 63.1843C91.7984 63.3519 94.0256 65.782 93.4688 68.4636C93.0234 71.1452 90.7961 73.1564 88.6802 72.9888C86.5644 72.8212 85.228 70.391 85.6735 67.7094Z" fill="#8AC27C"/>
<path d="M125.025 74.0661C126.22 71.834 123.212 68.8187 118.307 67.3313C113.401 65.8439 108.455 66.4477 107.26 68.6798C106.065 70.9119 109.073 73.9272 113.978 75.4146C118.884 76.902 123.83 76.2982 125.025 74.0661Z" fill="#8AC27C"/>
<path d="M110.06 87.2349C107.61 85.2237 107.61 82.2069 108.501 81.6203C109.503 80.9499 113.401 81.2013 115.851 83.2125C118.301 85.2237 118.969 87.7377 117.41 88.827C115.851 89.9164 112.51 89.246 110.06 87.2349Z" fill="#8AC27C"/>
<path d="M84.8931 85.9777C86.7862 83.6313 90.6839 82.8772 91.6862 83.3799C92.7998 83.8827 93.4679 86.8157 91.5748 89.1621C89.6816 91.5085 86.5635 92.5979 84.7817 91.7599C82.9999 90.9219 82.9999 88.3241 84.8931 85.9777Z" fill="#8AC27C"/>
<path d="M111.843 105.671C106.943 104.162 104.382 100.224 105.05 98.8829C105.83 97.4583 111.175 96.0337 116.186 97.5421C121.086 99.0505 124.093 102.067 122.979 104.33C121.754 106.592 116.854 107.179 111.843 105.671Z" fill="#8AC27C"/>
<path d="M88.3456 112.123C89.7934 108.269 94.916 105.922 96.6978 106.341C98.5909 106.76 101.152 110.699 99.5931 114.637C98.1454 118.492 94.3592 121.09 91.2411 120.419C88.2343 119.749 86.8979 115.978 88.3456 112.123Z" fill="#8AC27C"/>
<path d="M71.7516 119.916C73.6448 114.972 80.1038 112.039 82.4424 112.542C84.8923 113.045 88.1218 118.157 86.2287 123.101C84.3355 128.045 79.547 131.397 75.5379 130.475C71.5289 129.553 69.8585 124.861 71.7516 119.916Z" fill="#8AC27C"/>
<path d="M90.8936 107.907C93.132 106.605 92.599 103.264 89.7031 100.444C86.8072 97.6245 82.645 96.3942 80.4066 97.696C78.1681 98.9979 78.7011 102.339 81.597 105.158C84.4929 107.978 88.6552 109.208 90.8936 107.907Z" fill="#8AC27C"/>
<path d="M85.0052 80.6146C81.4417 80.028 79.2144 77.514 79.4372 76.5922C79.7713 75.5866 83.2235 74.1621 86.6757 74.7486C90.2392 75.3352 92.6892 77.095 92.2438 78.771C91.7983 80.3632 88.4575 81.2012 85.0052 80.6146Z" fill="#8AC27C"/>
<path d="M80.4378 65.95C77.3196 68.1287 72.7538 68.1287 71.7516 67.2908C70.638 66.4528 71.1947 63.017 74.2015 60.922C77.3196 58.7432 81.2173 58.1566 82.8877 59.5812C84.6695 60.922 83.5559 63.7712 80.4378 65.95Z" fill="#8AC27C"/>
<path d="M63.6223 78.4359C59.6133 78.1845 56.7179 75.6705 56.8293 74.6649C56.9406 73.5755 60.5042 71.6482 64.4019 71.8996C68.4109 72.151 71.4176 73.827 71.1949 75.6705C70.9722 77.5141 67.6313 78.6873 63.6223 78.4359Z" fill="#8AC27C"/>
<path d="M60.1708 64.19C56.6073 65.5308 52.3755 64.609 51.7074 63.6872C51.0392 62.6816 52.5983 59.6648 56.2732 58.324C59.8368 56.9832 63.623 57.1508 64.7366 58.8268C65.7389 60.419 63.7344 62.8492 60.1708 64.19Z" fill="#8AC27C"/>
<path d="M23.8664 66.7041C27.6527 68.3801 29.1004 71.8159 28.3208 72.8215C27.5413 73.9109 22.8641 74.5813 19.0778 72.9891C15.2915 71.3131 13.287 68.6315 14.6233 66.8717C15.9597 65.112 20.0801 65.0282 23.8664 66.7041Z" fill="#8AC27C"/>
<path d="M78.6567 42.6536C74.9818 45.838 68.8569 46.3408 67.4092 45.3352C65.8501 44.3296 65.8501 39.7207 69.5251 36.6201C73.2 33.4357 78.2113 32.2625 80.7726 33.9385C83.2226 35.5307 82.3316 39.4693 78.6567 42.6536Z" fill="#8AC27C"/>
<path d="M18.299 50.2794C22.4194 52.0391 23.9784 55.8101 23.1989 56.8995C22.308 58.0727 17.2967 58.8269 13.065 57.0671C8.94461 55.3073 6.71738 52.2905 8.16508 50.447C9.61278 48.6034 14.1786 48.5196 18.299 50.2794Z" fill="#8AC27C"/>
<path d="M46.9198 52.7933C43.1335 54.9721 37.8995 54.5531 36.8972 53.5475C35.7836 52.4581 36.8972 48.6871 40.6835 46.5084C44.4698 44.3296 49.0357 44.0782 50.7061 45.7542C52.4879 47.4301 50.8174 50.6145 46.9198 52.7933Z" fill="#8AC27C"/>
<path d="M40.2366 41.9833C36.7844 45.5867 30.4368 46.676 28.7664 45.7543C26.9846 44.7487 26.3164 39.9721 29.7686 36.3687C33.2208 32.7654 38.3435 31.0056 41.2389 32.5978C44.1343 34.19 43.6888 38.3799 40.2366 41.9833Z" fill="#8AC27C"/>
<path d="M42.9097 49.0225C38.1211 51.0337 34.4462 54.9723 32.7758 58.827C31.8849 61.0058 31.5508 63.2684 31.5508 65.531C31.5508 66.2852 33.1098 66.2852 32.9985 65.531C32.7757 59.7488 35.8939 54.0505 42.2415 50.6147C42.687 50.3633 43.1324 50.1119 43.5778 49.9443C44.4687 49.6929 43.6892 48.6873 42.9097 49.0225Z" fill="#72A265"/>
<path d="M15.9593 54.1341C21.416 56.1453 26.0932 59.8325 29.1 63.6872C30.7704 65.7822 31.884 68.0448 32.5522 70.3912C32.7749 71.0616 34.2226 70.8102 33.9999 70.056C31.9954 63.3521 26.2046 57.5699 18.5206 53.9665C17.9638 53.7151 17.2957 53.3799 16.7389 53.2124C15.848 52.8772 15.1798 53.7989 15.9593 54.1341Z" fill="#72A265"/>
<path d="M21.0837 69.8883C25.4268 70.6425 29.1017 73.5755 30.8835 76.5922C31.9971 78.5196 32.4426 80.5308 32.5539 82.6258C32.5539 83.38 34.113 83.38 34.0017 82.6258C33.7789 79.1062 32.5539 75.6704 29.5472 72.9051C27.7654 71.3129 25.5381 69.9721 22.9768 69.2179C22.42 69.0503 21.9746 68.8827 21.4178 68.7989C20.5269 68.7151 20.0814 69.7207 21.0837 69.8883Z" fill="#72A265"/>
<path d="M77.8778 153.436C84.5595 149.917 91.1299 145.978 96.5866 141.453C98.4797 139.861 100.373 138.185 101.821 136.341C102.266 135.754 101.041 135.168 100.484 135.754C97.8116 139.19 93.9139 142.039 90.0162 144.637C86.564 146.984 83.0004 149.162 79.3255 151.173C78.546 151.592 77.7664 152.011 77.0983 152.43C76.4301 152.849 77.0983 153.855 77.8778 153.436Z" fill="#72A265"/>
<path d="M110.841 150.336C109.282 147.989 107.946 145.391 107.055 142.794C105.273 138.185 104.159 133.073 106.387 128.464C106.721 127.794 105.273 127.458 104.939 128.129C102.6 132.822 103.714 138.101 105.496 142.794C106.498 145.559 107.834 148.324 109.616 150.838C110.062 151.509 111.287 151.006 110.841 150.336Z" fill="#72A265"/>
<path d="M93.5801 130.643C99.0368 127.961 103.937 123.771 106.275 119.162C107.278 117.151 107.834 114.972 107.723 112.794C107.723 112.039 106.164 112.039 106.275 112.794C106.609 117.403 103.714 121.676 99.705 125.028C97.7005 126.704 95.3619 128.38 92.9119 129.637C92.1324 130.056 92.8006 131.062 93.5801 130.643Z" fill="#72A265"/>
<path d="M123.536 132.738C121.42 131.732 119.527 130.224 117.857 128.799C113.291 124.777 110.284 119.917 108.502 114.889C108.279 114.218 106.832 114.47 107.054 115.224C109.504 121.844 114.07 128.548 121.309 132.905C121.754 133.157 122.311 133.492 122.756 133.743C123.647 134.079 124.427 133.073 123.536 132.738Z" fill="#72A265"/>
<path d="M93.9143 116.397C97.8119 110.698 99.4823 103.576 97.3665 97.3744C97.1437 96.704 95.6961 96.9554 95.9188 97.7096C97.9233 103.659 96.3642 110.531 92.5779 115.894C92.1325 116.481 93.4688 117.067 93.9143 116.397Z" fill="#72A265"/>
<path d="M118.079 102.57C115.74 102.067 113.402 101.313 111.174 100.475C106.831 98.7991 102.6 96.6203 99.8155 93.6035C98.1451 91.7599 97.1429 89.5812 97.0315 87.3186C97.0315 86.5644 95.4725 86.5644 95.5838 87.3186C95.8065 95.2795 105.94 100.307 114.849 102.989C115.74 103.24 116.631 103.492 117.633 103.743C118.524 103.827 118.97 102.821 118.079 102.57Z" fill="#72A265"/>
<path d="M87.1203 88.6594C89.0134 87.4862 90.5725 85.894 91.9089 84.3857C95.4724 80.5309 98.0337 76.1733 99.7042 71.5644C99.9269 70.894 98.4792 70.5588 98.2565 71.2292C96.6974 75.6705 94.1361 79.9443 90.6839 83.7153C89.3475 85.1399 87.8998 86.5644 86.118 87.7376C85.3385 88.3242 86.4521 89.1622 87.1203 88.6594Z" fill="#72A265"/>
<path d="M114.515 86.0617C112.065 84.5533 110.06 82.7097 108.167 80.7823C103.49 76.0058 100.261 70.5589 98.4787 64.8605C98.256 64.1901 96.8083 64.4415 97.031 65.1957C98.8128 70.9778 102.154 76.5924 106.831 81.3689C108.724 83.2963 110.84 85.3075 113.401 86.8159C114.181 87.2349 115.183 86.4807 114.515 86.0617Z" fill="#72A265"/>
<path d="M90.5722 68.6314C90.9063 66.4526 90.7949 64.19 90.4609 62.0112C89.7927 57.8213 87.8996 53.7151 84.0019 50.6145C83.3337 50.1117 82.3315 50.8659 82.9996 51.3687C88.4564 55.8101 90.1268 62.7654 89.1245 68.6314C89.0132 69.3856 90.4609 69.3856 90.5722 68.6314Z" fill="#72A265"/>
<path d="M116.409 70.8939C110.396 69.2179 104.382 66.6202 99.7049 63.2682C97.7004 61.8436 95.8073 60.2514 94.4709 58.4078C94.0255 57.8213 92.6891 58.3241 93.1346 58.9944C97.4777 64.7766 105.83 68.7151 113.736 71.3129C114.516 71.5643 115.184 71.8157 115.964 71.9833C116.966 72.2347 117.3 71.1453 116.409 70.8939Z" fill="#72A265"/>
<path d="M76.5417 49.1899C80.328 50.1955 84.2256 51.0335 88.1233 51.5363C93.4686 52.2905 100.484 53.0447 105.384 50.6145C106.164 50.1955 105.384 49.2737 104.605 49.6089C99.8162 51.9553 92.8005 51.1173 87.5665 50.2793C84.0029 49.6927 80.328 49.0223 76.8758 48.0167C75.9849 47.8491 75.6508 48.9385 76.5417 49.1899Z" fill="#72A265"/>
<path d="M72.9778 39.0503C72.8664 39.8045 72.421 40.3073 71.8642 40.9777C70.4165 42.8212 68.1892 44.4134 65.8506 45.6704C63.6234 46.9274 61.1734 47.933 58.7235 48.8548C57.8326 49.19 58.6121 50.1118 59.503 49.8604C63.512 48.4358 67.4097 46.5922 70.4165 44.2458C71.8642 43.0726 73.3119 41.7318 74.0914 40.2235C74.2028 39.9721 74.3141 39.7207 74.4255 39.4693C74.5368 38.6313 73.0892 38.2961 72.9778 39.0503Z" fill="#72A265"/>
<path d="M58.8341 60.1678C56.6068 60.922 54.6023 61.8438 52.5978 62.8494C48.4774 65.0281 44.6911 67.7097 42.0184 70.8941C40.2367 72.9891 39.0117 75.3354 38.3435 77.7656C38.1208 78.436 39.5685 78.7712 39.7912 78.1008C41.573 70.8941 49.1456 65.3633 57.3864 61.9276C58.0545 61.6762 58.8341 61.341 59.5022 61.0896C60.3931 60.8382 59.6136 59.8326 58.8341 60.1678Z" fill="#72A265"/>
<path d="M87.344 103.659C85.3395 102.235 83.5577 100.643 81.9986 99.0504C79.1032 96.1174 76.3192 92.5979 75.7624 88.8269C75.6511 88.1565 74.2033 88.0727 74.3147 88.8269C74.7601 92.7655 77.5442 96.285 80.551 99.4694C82.3327 101.229 84.2259 102.989 86.3418 104.497C86.8986 105 88.0122 104.162 87.344 103.659Z" fill="#72A265"/>
<path d="M48.8116 79.5254C49.7025 78.436 51.0389 77.4304 52.3752 76.6762C55.7161 74.8326 59.7251 74.3298 63.7341 75.0002C64.625 75.1678 65.0704 74.0784 64.1795 73.9108C60.616 73.3242 57.0524 73.4918 53.8229 74.7488C51.707 75.503 49.9253 76.6762 48.4776 78.1008C48.1435 78.436 47.8094 78.6874 47.5867 79.0226C47.0299 79.5254 48.3662 80.112 48.8116 79.5254Z" fill="#72A265"/>
<path d="M62.6213 69.4695C64.069 69.3857 65.5167 69.2181 66.9644 68.9667C69.5257 68.5478 72.1984 67.9612 74.4256 66.8718C75.6506 66.2852 76.6529 65.531 77.321 64.6092C77.7665 63.9388 76.4301 63.436 75.9847 64.0226C74.8711 65.6148 72.5325 66.4528 70.4166 67.0394C68.3007 67.626 66.0735 67.9612 63.9576 68.2126C63.5122 68.2964 63.1781 68.2964 62.6213 68.2964C61.7304 68.3802 61.7304 69.5533 62.6213 69.4695Z" fill="#72A265"/>
<path d="M73.0881 72.3186C73.7563 73.0728 74.5358 73.827 75.3153 74.4974C76.8744 75.8382 78.7675 77.0951 80.9948 77.7655C82.3311 78.1845 83.7788 78.4359 85.2265 78.4359C86.2288 78.4359 86.2288 77.2627 85.2265 77.3465C80.9948 77.5141 77.3199 74.8326 75.0926 72.4862C74.8699 72.2348 74.6472 71.9834 74.4244 71.732C73.8676 71.1454 72.5313 71.732 73.0881 72.3186Z" fill="#72A265"/>
<path d="M31.44 65.0279C32.7763 69.3016 33.1104 73.8268 32.9991 78.2681C32.8877 80.6983 32.665 83.1285 32.1082 85.5587H33.5559C35.0036 79.7765 34.7809 73.5754 33.6672 67.7932C32.4423 62.0111 28.2105 56.3966 28.7673 50.363C29.2128 45.9217 32.4423 41.9831 36.2286 38.7149C36.8967 38.1283 35.7831 37.3741 35.2263 37.9607C31.8854 40.8937 28.8787 44.2457 27.7651 48.1004C26.9855 50.9496 27.3196 53.7988 28.2105 56.5642C29.1014 59.3295 30.4377 62.1787 31.44 65.0279Z" fill="#72A265"/>
<path d="M109.17 118.408C108.947 114.889 107.388 111.537 105.272 108.352C103.268 105.335 100.707 102.486 98.702 99.4695C97.8111 98.2125 97.0316 96.8717 96.6975 95.4471C96.3635 93.9388 96.3635 92.4304 96.5862 91.0058C97.3657 83.7152 100.595 76.5923 99.7043 69.1342C98.8134 62.5141 93.9135 56.3129 87.0091 52.2068C79.5478 47.6816 69.8594 46.0056 60.7277 48.2682C53.1552 50.1956 47.5871 54.2179 44.0235 59.5811C39.1236 67.123 37.7872 77.0951 38.2327 85.3912C38.2327 85.475 38.2327 85.5588 38.2327 85.5588H39.6804C39.1236 78.6873 40.1258 70.475 43.1326 63.9386C45.3598 58.9107 49.1461 54.0503 55.3824 51.285C64.0686 47.3464 74.6479 47.4302 83.2228 51.5364C90.684 55.1397 96.5862 61.3409 97.9225 67.961C99.3702 75.1677 96.3635 82.3745 95.2499 89.4974C94.8044 92.0952 94.5817 95.0281 95.918 97.5421C97.4771 100.391 99.8156 103.073 101.82 105.754C104.047 108.771 106.163 111.872 107.166 115.308C108.168 118.743 107.722 122.263 106.275 125.615C103.602 131.816 99.3702 137.514 96.2521 143.548C92.9112 150.084 90.3499 157.123 91.7976 164.162C92.1317 165.922 92.6885 167.598 93.5794 169.19C93.9135 169.861 95.3612 169.609 95.0271 168.855C87.9 154.609 100.372 140.531 106.943 127.626C108.279 124.777 109.393 121.676 109.17 118.408Z" fill="#72A265"/>
<path d="M82.5545 110.782C81.5523 107.765 79.2137 105.084 77.2092 102.402C75.4274 100.056 75.316 97.2906 75.316 94.609C75.316 91.4247 75.6501 88.2403 76.0956 85.0559C76.7638 80.1118 78.1001 74.4972 72.9775 70.5587C67.0753 66.0335 57.2754 68.7151 52.4869 72.905C49.0347 75.9218 45.5825 81.3687 44.0234 85.6425H45.5825C46.9188 82.3743 49.3688 78.2682 51.4846 75.838C53.3778 73.5754 56.0505 71.4804 59.3913 70.3911C63.1776 69.1341 67.9662 68.8827 71.307 70.9777C76.7638 74.3296 75.316 80.1118 74.7592 84.7207C74.3138 87.6537 73.9797 90.5867 73.9797 93.6034C73.8684 96.1174 73.8683 98.799 74.8706 101.313C75.9842 104.078 78.7683 106.509 80.216 109.19C82.4432 113.296 81.9977 117.486 79.4364 121.509C78.991 122.179 80.3273 122.682 80.7728 122.095C82.8887 118.324 83.8909 114.553 82.5545 110.782Z" fill="#72A265"/>
</svg>
